<svg xmlns="http://www.w3.org/2000/svg" shape-rendering="geometricPrecision" text-rendering="geometricPrecision" image-rendering="optimizeQuality" fill-rule="evenodd" clip-rule="evenodd" viewBox="0 0 512 481.576"><path fill-rule="nonzero" d="M481.082 311.974l-39.911 113.301c-6.268 20.348-11.033 33.521-21.097 42.881-10.636 9.893-24.586 13.42-48.374 13.42H141.499c-23.789 0-37.739-3.527-48.375-13.42-10.071-9.367-14.836-22.553-21.11-42.925l-39.79-112.963C13.926 308.502 0 292.164 0 272.82c0-19.404 13.934-35.716 32.266-39.456l40.003-112.298c15.711-44.231 19.759-55.622 69.23-55.622h67.725V47.541c0-13.057 5.345-24.931 13.957-33.544l.039-.04C231.834 5.346 243.708 0 256.765 0c13.057 0 24.936 5.346 33.549 13.957l.04.04c8.611 8.613 13.957 20.487 13.957 33.544v17.903H371.7c47.463 0 52.255 11.703 67.344 50.884.749 1.803 1.413 3.647 2.142 5.461l39.854 111.87c17.672 4.24 30.96 20.262 30.96 39.161 0 18.881-13.268 34.894-30.918 39.154zM229.733 65.444h54.068V47.541c0-7.439-3.035-14.209-7.924-19.107-4.898-4.889-11.666-7.924-19.107-7.924-7.444 0-14.214 3.035-19.112 7.924-4.89 4.898-7.925 11.668-7.925 19.107v17.903z"/><path fill="#E08F68" d="M466.16 232.551l-37.843-106.223c-14.141-36.524-16.513-47.213-56.617-47.213H141.499c-40.105 0-43.271 9.643-56.618 47.213L47.04 232.551h419.12zM466.224 313.086l-37.907 107.606c-11.371 36.985-16.513 47.213-56.617 47.213H141.499c-40.105 0-45.247-10.228-56.618-47.213l-37.9-107.606h419.243z"/><path fill-rule="nonzero" d="M168.171 137.719c0-6.67 5.408-12.078 12.078-12.078 6.671 0 12.078 5.408 12.078 12.078v62.429c0 6.67-5.407 12.078-12.078 12.078-6.67 0-12.078-5.408-12.078-12.078v-62.429zm.756 251.238c0-6.67 5.407-12.078 12.078-12.078 6.67 0 12.078 5.408 12.078 12.078v31.801c0 6.671-5.408 12.078-12.078 12.078-6.671 0-12.078-5.407-12.078-12.078v-31.801zm151.505 0c0-6.67 5.408-12.078 12.078-12.078 6.671 0 12.078 5.408 12.078 12.078v31.801c0 6.671-5.407 12.078-12.078 12.078-6.67 0-12.078-5.407-12.078-12.078v-31.801zm-75.752 0c0-6.67 5.408-12.078 12.079-12.078 6.67 0 12.077 5.408 12.077 12.078v31.801c0 6.671-5.407 12.078-12.077 12.078-6.671 0-12.079-5.407-12.079-12.078v-31.801zm74.994-251.238c0-6.67 5.408-12.078 12.078-12.078 6.671 0 12.078 5.408 12.078 12.078v62.429c0 6.67-5.407 12.078-12.078 12.078-6.67 0-12.078-5.408-12.078-12.078v-62.429zm-75.751 0c0-6.67 5.407-12.078 12.078-12.078 6.67 0 12.078 5.408 12.078 12.078v62.429c0 6.67-5.408 12.078-12.078 12.078-6.671 0-12.078-5.408-12.078-12.078v-62.429z"/><path fill="#F7CE85" d="M40.263 246.23h431.474c14.628 0 26.592 11.966 26.592 26.591 0 14.627-11.992 26.594-26.592 26.594H40.263c-14.601 0-26.592-11.967-26.592-26.594 0-14.625 11.964-26.591 26.592-26.591z"/><path fill-rule="nonzero" d="M144.277 267.868h26.424c5.618 0 10.716 2.296 14.398 5.977 3.688 3.689 5.977 8.798 5.977 14.4v45.258c0 5.611-2.296 10.711-5.979 14.395-3.685 3.684-8.791 5.979-14.396 5.979h-26.424a20.337 20.337 0 01-14.4-5.977c-3.682-3.682-5.977-8.779-5.977-14.397v-45.258c0-5.576 2.29-10.66 5.975-14.351l.05-.05c3.689-3.685 8.767-5.976 14.352-5.976zm198.536 0h26.425c11.223 0 20.375 9.154 20.375 20.377v45.258c0 11.218-9.156 20.374-20.375 20.374h-26.425c-11.225 0-20.376-9.147-20.376-20.374v-45.258c0-11.17 9.207-20.377 20.376-20.377z"/><path fill="#F7D395" d="M342.813 281.176h26.425c3.886 0 7.067 3.195 7.067 7.069v45.258c0 3.874-3.192 7.066-7.067 7.066h-26.425c-3.874 0-7.069-3.178-7.069-7.066v-45.258c0-3.888 3.181-7.069 7.069-7.069zm-198.536 0h26.424c3.888 0 7.067 3.195 7.067 7.069v45.258c0 3.874-3.192 7.066-7.067 7.066h-26.424c-3.875 0-7.07-3.178-7.07-7.066v-45.258c0-3.888 3.182-7.069 7.07-7.069z"/></svg>
