<svg width="64" height="64" viewBox="0 0 64 64" fill="none" xmlns="http://www.w3.org/2000/svg">
<path d="M58.75 21.93C58.9054 21.7901 59.0131 21.6049 59.0579 21.4005C59.1026 21.1962 59.0821 20.983 58.9993 20.7909C58.9165 20.5988 58.7756 20.4375 58.5963 20.3297C58.417 20.2219 58.2085 20.1731 58 20.19C54.8209 20.5138 51.6716 21.0821 48.58 21.89C43.2721 23.285 37.7972 23.9412 32.31 23.84C26.8228 23.9412 21.3478 23.285 16.04 21.89C12.7474 21.0321 9.38915 20.4501 5.99996 20.15C5.73615 20.1278 5.47431 20.2112 5.27186 20.3818C5.06941 20.5523 4.94286 20.7963 4.91996 21.06C4.90743 21.1987 4.924 21.3385 4.96861 21.4704C5.01322 21.6023 5.08489 21.7234 5.17903 21.826C5.27317 21.9286 5.3877 22.0105 5.51529 22.0663C5.64288 22.122 5.78071 22.1506 5.91996 22.15L4.20996 27.87V37.25L8.99996 47.65L17.42 55.25L23.42 57.87L42.35 58.59L49.35 53.48L55.68 46L59.9 37V28L58.75 21.93Z" fill="url(#paint0_linear)" id="id_199"></path>
<path d="M42.46 46.0001C42.3101 45.7429 42.0642 45.5557 41.7763 45.4797C41.4885 45.4038 41.1822 45.4453 40.925 45.5951C40.6677 45.745 40.4805 45.9909 40.4045 46.2788C40.3286 46.5666 40.3701 46.8729 40.52 47.1301C41.91 49.3601 42.39 53.2301 39.1 53.9601C38.5592 52.3175 37.6215 50.8336 36.37 49.6401C35.3447 48.8304 34.6 47.7188 34.2411 46.4627C33.8822 45.2065 33.9273 43.8693 34.37 42.6401C34.86 41.2801 32.69 40.6401 32.2 42.0401C31.7423 43.3041 31.6105 44.6629 31.8167 45.9912C32.023 47.3196 32.5606 48.5745 33.38 49.6401C35.07 51.4701 36.81 53.0201 37.28 55.6401L37.19 55.7901C34.19 55.5601 30.95 53.7901 30.06 50.6601C29.9738 50.3753 29.7815 50.1345 29.5228 49.9874C29.2641 49.8404 28.9588 49.7984 28.67 49.8701C28.3841 49.954 28.1424 50.1464 27.9967 50.4062C27.8509 50.6659 27.8126 50.9725 27.89 51.2601C28.5282 53.1391 29.7158 54.7832 31.299 55.9795C32.8822 57.1758 34.7881 57.8693 36.77 57.9701C36.8538 58.1617 36.9902 58.3257 37.1632 58.4432C37.3362 58.5607 37.5389 58.6269 37.7479 58.6343C37.957 58.6416 38.1638 58.5897 38.3446 58.4846C38.5254 58.3795 38.6729 58.2254 38.77 58.0401C39.43 57.8601 39.64 56.9301 39.65 56.3201C44.38 54.6901 44.75 49.8901 42.46 46.0001Z" fill="url(#paint1_linear)" id="id_200"></path>
<path d="M46.7999 42.3401C46.0308 42.3401 45.2931 42.6456 44.7493 43.1895C44.2054 43.7333 43.8999 44.471 43.8999 45.2401C43.8999 46.0092 44.2054 46.7468 44.7493 47.2907C45.2931 47.8346 46.0308 48.1401 46.7999 48.1401C47.569 48.1401 48.3067 47.8346 48.8505 47.2907C49.3944 46.7468 49.6999 46.0092 49.6999 45.2401C49.6999 44.471 49.3944 43.7333 48.8505 43.1895C48.3067 42.6456 47.569 42.3401 46.7999 42.3401V42.3401Z" fill="url(#paint2_linear)" id="id_201"></path>
<path d="M49.39 31.9999C50.131 31.9564 50.8273 31.6314 51.3366 31.0914C51.8458 30.5514 52.1295 29.8372 52.1295 29.0949C52.1295 28.3527 51.8458 27.6385 51.3366 27.0985C50.8273 26.5584 50.131 26.2334 49.39 26.1899C48.649 26.2334 47.9527 26.5584 47.4434 27.0985C46.9342 27.6385 46.6505 28.3527 46.6505 29.0949C46.6505 29.8372 46.9342 30.5514 47.4434 31.0914C47.9527 31.6314 48.649 31.9564 49.39 31.9999V31.9999Z" fill="url(#paint3_linear)" id="id_202"></path>
<path d="M51.5699 35C50.6417 35 49.7515 35.3688 49.0951 36.0251C48.4387 36.6815 48.0699 37.5717 48.0699 38.5C48.0699 39.4283 48.4387 40.3185 49.0951 40.9749C49.7515 41.6312 50.6417 42 51.5699 42C52.4982 42 53.3884 41.6312 54.0448 40.9749C54.7012 40.3185 55.0699 39.4283 55.0699 38.5C55.0699 37.5717 54.7012 36.6815 54.0448 36.0251C53.3884 35.3688 52.4982 35 51.5699 35V35Z" fill="url(#paint4_linear)" id="id_203"></path>
<path d="M45.8999 35.05C45.8999 34.1218 45.5312 33.2316 44.8748 32.5752C44.2184 31.9188 43.3282 31.55 42.3999 31.55C41.4716 31.55 40.5814 31.9188 39.925 32.5752C39.2686 33.2316 38.8999 34.1218 38.8999 35.05C38.8999 35.9783 39.2686 36.8685 39.925 37.5249C40.5814 38.1813 41.4716 38.55 42.3999 38.55C43.3282 38.55 44.2184 38.1813 44.8748 37.5249C45.5312 36.8685 45.8999 35.9783 45.8999 35.05V35.05Z" fill="url(#paint5_linear)" id="id_204"></path>
<path d="M28.1999 31.55C26.3434 31.6259 24.5569 32.2796 23.0899 33.42L19.0899 30.42C18.9413 30.3085 18.7647 30.2407 18.5797 30.224C18.3948 30.2073 18.2088 30.2425 18.0427 30.3255C17.8766 30.4086 17.7369 30.5363 17.6393 30.6942C17.5416 30.8522 17.4899 31.0343 17.4899 31.22V38.1C17.488 38.2865 17.5384 38.4699 17.6353 38.6293C17.7322 38.7888 17.8717 38.9179 18.0382 39.0022C18.2047 39.0865 18.3914 39.1225 18.5772 39.1062C18.7631 39.0899 18.9407 39.0219 19.0899 38.91L23.0899 35.91C24.6515 37.1833 26.6276 37.8362 28.6404 37.744C30.6532 37.6517 32.5613 36.8207 33.9999 35.41C34.1862 35.2226 34.2907 34.9692 34.2907 34.705C34.2907 34.4408 34.1862 34.1873 33.9999 34C32.4084 32.5366 30.3585 31.6707 28.1999 31.55V31.55Z" fill="url(#paint6_linear)" id="id_205"></path>
<path d="M23.5199 40.59C21.663 40.6639 19.8759 41.3178 18.4099 42.4599L14.3599 39.4599C14.2113 39.3514 14.0357 39.2859 13.8522 39.2707C13.6688 39.2556 13.4848 39.2913 13.3204 39.374C13.156 39.4567 13.0176 39.5832 12.9205 39.7395C12.8234 39.8958 12.7713 40.0759 12.7699 40.2599V47.11C12.7694 47.2948 12.8202 47.4762 12.9166 47.634C13.013 47.7917 13.1512 47.9197 13.316 48.0036C13.4807 48.0875 13.6655 48.1241 13.8498 48.1094C14.034 48.0946 14.2106 48.029 14.3599 47.9199L18.4099 44.9199C19.9723 46.1781 21.942 46.8192 23.9457 46.7215C25.9493 46.6238 27.8474 45.7942 29.2799 44.3899C29.3798 44.2964 29.4595 44.1834 29.5139 44.0578C29.5684 43.9322 29.5965 43.7968 29.5965 43.66C29.5965 43.5231 29.5684 43.3877 29.5139 43.2621C29.4595 43.1365 29.3798 43.0235 29.2799 42.93C27.6817 41.5178 25.6501 40.6925 23.5199 40.59Z" fill="url(#paint7_linear)" id="id_206"></path>
<path d="M61 31.29C61.0059 27.4207 60.2335 23.5896 58.7286 20.0249C57.2236 16.4601 55.017 13.2345 52.24 10.54H54.05C54.3152 10.54 54.5695 10.4347 54.7571 10.2471C54.9446 10.0596 55.05 9.80526 55.05 9.54004C55.05 9.27482 54.9446 9.02047 54.7571 8.83293C54.5695 8.6454 54.3152 8.54004 54.05 8.54004H9.99996C9.73474 8.54004 9.48039 8.6454 9.29285 8.83293C9.10532 9.02047 8.99996 9.27482 8.99996 9.54004C8.99996 9.80526 9.10532 10.0596 9.29285 10.2471C9.48039 10.4347 9.73474 10.54 9.99996 10.54H11.81C-2.38004 23.94 1.28996 48.32 18.56 57H13.77C13.5047 57 13.2504 57.1054 13.0629 57.2929C12.8753 57.4805 12.77 57.7348 12.77 58C12.77 58.2653 12.8753 58.5196 13.0629 58.7071C13.2504 58.8947 13.5047 59 13.77 59H50.23C50.4952 59 50.7495 58.8947 50.9371 58.7071C51.1246 58.5196 51.23 58.2653 51.23 58C51.23 57.7348 51.1246 57.4805 50.9371 57.2929C50.7495 57.1054 50.4952 57 50.23 57H45.44C50.1447 54.557 54.0856 50.8654 56.8304 46.3301C59.5752 41.7949 61.0178 36.5912 61 31.29V31.29ZM40.28 57H23.72C3.57996 50.75 -1.58004 23.85 14.72 10.55H49.22C65.58 23.85 60.41 50.74 40.28 57Z" fill="url(#paint8_linear)" id="id_207"></path>
<defs>
<linearGradient id="paint0_linear" x1="4.20996" y1="39.37" x2="59.9" y2="39.37" gradientUnits="userSpaceOnUse">
<stop stop-color="#00ADEE" id="id_208"></stop>
<stop offset="0.4" stop-color="#0070B4" id="id_209"></stop>
<stop offset="1" stop-color="#2E3191" id="id_210"></stop>
</linearGradient>
<linearGradient id="paint1_linear" x1="27.79" y1="49.9101" x2="43.82" y2="49.9101" gradientUnits="userSpaceOnUse">
<stop stop-color="#0FC000" id="id_211"></stop>
<stop offset="0.28" stop-color="#0BA809" id="id_212"></stop>
<stop offset="0.87" stop-color="#026B21" id="id_213"></stop>
<stop offset="1" stop-color="#005C27" id="id_214"></stop>
</linearGradient>
<linearGradient id="paint2_linear" x1="43.9299" y1="45.2401" x2="49.6699" y2="45.2401" gradientUnits="userSpaceOnUse">
<stop stop-color="#E55DA1" id="id_215"></stop>
<stop offset="0.39" stop-color="#CA2027" id="id_216"></stop>
<stop offset="0.56" stop-color="#B52022" id="id_217"></stop>
<stop offset="0.9" stop-color="#7E2115" id="id_218"></stop>
<stop offset="1" stop-color="#6D2111" id="id_219"></stop>
</linearGradient>
<linearGradient id="paint3_linear" x1="301.587" y1="195.493" x2="332.982" y2="195.493" gradientUnits="userSpaceOnUse">
<stop stop-color="#E55DA1" id="id_220"></stop>
<stop offset="0.39" stop-color="#CA2027" id="id_221"></stop>
<stop offset="0.56" stop-color="#B52022" id="id_222"></stop>
<stop offset="0.9" stop-color="#7E2115" id="id_223"></stop>
<stop offset="1" stop-color="#6D2111" id="id_224"></stop>
</linearGradient>
<linearGradient id="paint4_linear" x1="384.84" y1="304.36" x2="433.28" y2="304.36" gradientUnits="userSpaceOnUse">
<stop stop-color="#E55DA1" id="id_225"></stop>
<stop offset="0.39" stop-color="#CA2027" id="id_226"></stop>
<stop offset="0.56" stop-color="#B52022" id="id_227"></stop>
<stop offset="0.9" stop-color="#7E2115" id="id_228"></stop>
<stop offset="1" stop-color="#6D2111" id="id_229"></stop>
</linearGradient>
<linearGradient id="paint5_linear" x1="311.27" y1="276.9" x2="360.2" y2="276.9" gradientUnits="userSpaceOnUse">
<stop stop-color="#E55DA1" id="id_230"></stop>
<stop offset="0.39" stop-color="#CA2027" id="id_231"></stop>
<stop offset="0.56" stop-color="#B52022" id="id_232"></stop>
<stop offset="0.9" stop-color="#7E2115" id="id_233"></stop>
<stop offset="1" stop-color="#6D2111" id="id_234"></stop>
</linearGradient>
<linearGradient id="paint6_linear" x1="310.665" y1="338.527" x2="593.423" y2="338.527" gradientUnits="userSpaceOnUse">
<stop stop-color="#E55DA1" id="id_235"></stop>
<stop offset="0.39" stop-color="#CA2027" id="id_236"></stop>
<stop offset="0.56" stop-color="#B52022" id="id_237"></stop>
<stop offset="0.9" stop-color="#7E2115" id="id_238"></stop>
<stop offset="1" stop-color="#6D2111" id="id_239"></stop>
</linearGradient>
<linearGradient id="paint7_linear" x1="227.645" y1="425.98" x2="510.836" y2="425.98" gradientUnits="userSpaceOnUse">
<stop stop-color="#E55DA1" id="id_240"></stop>
<stop offset="0.39" stop-color="#CA2027" id="id_241"></stop>
<stop offset="0.56" stop-color="#B52022" id="id_242"></stop>
<stop offset="0.9" stop-color="#7E2115" id="id_243"></stop>
<stop offset="1" stop-color="#6D2111" id="id_244"></stop>
</linearGradient>
<linearGradient id="paint8_linear" x1="3.04996" y1="33.77" x2="61" y2="33.77" gradientUnits="userSpaceOnUse">
<stop stop-color="#C6C6C6" id="id_245"></stop>
<stop offset="0.42" stop-color="#AEAEAE" id="id_246"></stop>
<stop offset="1" stop-color="#878787" id="id_247"></stop>
</linearGradient>
</defs>
</svg>