<svg id="Layer_1" data-name="Layer 1" xmlns="http://www.w3.org/2000/svg" viewBox="0 0 66.52 122.88"><title>pesticide</title><path d="M14,41.48h27.5c2,13.88,7.76,23.34,12.34,33.91,5.65,13.07,8.21,16.34,6,31.09a26.44,26.44,0,0,1-3.69,10.73A13.57,13.57,0,0,1,52.49,121a11.55,11.55,0,0,1-5.54,1.9H17.63a17.42,17.42,0,0,1-8.23-2.32C-9.74,108.77,5,56.53,13,42.11a1.19,1.19,0,0,1,1-.63ZM55.53,1.41,55.4,16.56a1.17,1.17,0,0,1-.87,1.13h0a23.68,23.68,0,0,0-9.33,4.6,15.46,15.46,0,0,0-4.9,9.11v5.18a1.19,1.19,0,0,1-1.19,1.2H18.36A2.91,2.91,0,0,1,15.85,37a3.91,3.91,0,0,1-.92-2.8v-.12c.4-4.25-.48-7.42-2.48-9.89s-5.37-4.42-9.79-6a1.2,1.2,0,0,1-.72-1.53h0C4.33,10.3,8,6.27,12.62,3.76S26,.35,31.94.19C35.66.09,39.4,0,43.15,0s7.49,0,11.22.18a1.18,1.18,0,0,1,1.16,1.23ZM58,1.06l.1,14.56h7.12c1,0,1.51-.81,1.27-3V3.51a1.63,1.63,0,0,0-1-1.59L58,1.06ZM45.47,32.67c1.27-5.07,4.3-8.41,9.4-9.7A48.49,48.49,0,0,0,62,43c2.12,3-1.32,6.07-3.79,2.92l-8-13.12-4.68-.13ZM28.16,72.06a20.2,20.2,0,0,0-3.87.65,19.26,19.26,0,0,0-3.68,1.38,20.13,20.13,0,0,0-8.49,8h0a19.92,19.92,0,0,0-1.62,3.58,20.71,20.71,0,0,0-.9,3.83,20.36,20.36,0,0,0-.12,3.91,19.4,19.4,0,0,0,.64,3.88,20.23,20.23,0,0,0,1.38,3.68,20.15,20.15,0,0,0,4.75,6.2,21,21,0,0,0,3.14,2.26l.06,0A20.31,20.31,0,0,0,23,111a19.58,19.58,0,0,0,3.83.89h0a19.72,19.72,0,0,0,7.79-.52A19.78,19.78,0,0,0,38.34,110,20.2,20.2,0,0,0,41.67,108a20,20,0,0,0,5.15-5.88,20.31,20.31,0,0,0,1.63-3.59,20.07,20.07,0,0,0,1-7.74,21.22,21.22,0,0,0-.64-3.88,20.54,20.54,0,0,0-1.39-3.68,20.15,20.15,0,0,0-2.06-3.33A20.84,20.84,0,0,0,42.69,77a20,20,0,0,0-10.61-4.81h0a20.43,20.43,0,0,0-3.92-.13Zm1.35,10.21a4.2,4.2,0,0,1,1.5.28c.62-1.35.8-1.78,1.49-3.1l1.65,1.08c.35.22-1.07,2-1.52,3a10.53,10.53,0,0,1,3.07,5.63H29.06l.68.82H37l3.05-1c3-.89,3,1.88,1.57,2.37l-3.92,1.34h0c0,.21,0,.43,0,.65A16.66,16.66,0,0,1,37.64,95l3.73,1.89c1.21.61,1.32,3.28-1.82,2.16l-2.47-1.25-.24.73,3.83,4.63a1,1,0,0,0,1.45.14,1.14,1.14,0,0,0,.16-.15l.36-.43.38-.49c.2-.27.4-.55.59-.84s.4-.62.56-.89a17.33,17.33,0,0,0,1.37-3,17,17,0,0,0,.76-3.24A16.62,16.62,0,0,0,46.4,91a17,17,0,0,0-.54-3.29,17.41,17.41,0,0,0-1.17-3.12,16.53,16.53,0,0,0-1.75-2.81h0a16.84,16.84,0,0,0-2.28-2.42A16.55,16.55,0,0,0,38,77.36a16.08,16.08,0,0,0-3-1.38,17,17,0,0,0-9.83-.32c-.44.12-.87.26-1.3.41s-.83.31-1.25.5h0c-.3.13-.58.27-.83.39l-.8.45a1,1,0,0,0-.38,1.41.83.83,0,0,0,.16.21l4.65,5.63a7.63,7.63,0,0,1,1.05-1.13c-.23-.49-.42-.93-.59-1.31l-1-1.84,1.66-1.08c.31-.2.59.3.83,1s.54,1.81.75,2.28a5,5,0,0,1,1.52-.28ZM25.1,89.16H23.31a14.76,14.76,0,0,1,.47-1.59l-5.51-6.66a1,1,0,0,0-1.45-.14.71.71,0,0,0-.15.15l-.37.43-.38.49c-.2.26-.4.55-.59.84s-.4.62-.55.89a16.73,16.73,0,0,0-1.38,3,16.22,16.22,0,0,0-.75,3.24,15.9,15.9,0,0,0-.11,3.31,17.23,17.23,0,0,0,.54,3.29,17.8,17.8,0,0,0,1.17,3.11A16.91,16.91,0,0,0,16,102.38h0a16.77,16.77,0,0,0,2.27,2.42A17.45,17.45,0,0,0,21,106.75a16.8,16.8,0,0,0,6.28,2.13,15.9,15.9,0,0,0,3.31.11,17.23,17.23,0,0,0,3.29-.54c.43-.12.87-.26,1.3-.41s.82-.31,1.24-.5h0l.79-.38.82-.44a1,1,0,0,0,.37-1.42.8.8,0,0,0-.15-.21l-3-3.56a7.14,7.14,0,0,1-5.73,3.34c-3.37,0-6.27-2.93-7.5-7.09L19.39,99c-3.11,1.47-3.1-1.63-1.79-2.21L21.54,95a16.25,16.25,0,0,1-.08-1.7h0c0-.22,0-.44,0-.65L17.31,91.2c-1.56-.54-1.2-3.35,1.57-2.37L22.21,90h3.57l-.68-.82Z"/></svg>